<svg fill="#000000" width="800px" height="800px" viewBox="0 0 32 32" version="1.1" xmlns="http://www.w3.org/2000/svg">
<path d="M26 15.036c-0.69 0-1.25 0.56-1.25 1.25v12.464h-21.5v-21.5h12.464c0.69 0 1.25-0.56 1.25-1.25s-0.56-1.25-1.25-1.25v0h-13.714c-0.69 0-1.25 0.56-1.25 1.25v0 24c0 0.69 0.56 1.25 1.25 1.25h24c0.69-0.001 1.249-0.56 1.25-1.25v-13.714c-0-0.69-0.56-1.25-1.25-1.25h-0zM31.248 1.917c-0.046-0.648-0.578-1.158-1.231-1.167h-10.017c-0.69 0-1.25 0.56-1.25 1.25s0.56 1.25 1.25 1.25v0h6.982l-15.866 15.865c-0.227 0.226-0.367 0.539-0.367 0.885 0 0.691 0.56 1.251 1.251 1.251 0.345 0 0.658-0.14 0.884-0.366v0l15.866-15.867v6.982c0 0.69 0.56 1.25 1.25 1.25s1.25-0.56 1.25-1.25v0-9.991c0-0.031 0-0.062-0.002-0.092z"></path>
</svg>
